<?xml version="1.0" encoding="UTF-8"?><svg id="Capa_2" xmlns="http://www.w3.org/2000/svg" xmlns:xlink="http://www.w3.org/1999/xlink" viewBox="0 0 119.9 119.9"><defs><style>.cls-1{fill:#00d14f;}.cls-1,.cls-2,.cls-3,.cls-4{stroke-width:0px;}.cls-2{fill:#4f90fd;}.cls-3{fill:none;}.cls-5{clip-path:url(#clippath-1);}.cls-4{fill:#fd990f;}.cls-6{clip-path:url(#clippath);}</style><clipPath id="clippath"><path class="cls-3" d="m59.95,0c33.06,0,59.95,26.89,59.95,59.95s-26.89,59.95-59.95,59.95S0,93.01,0,59.95,26.89,0,59.95,0"/></clipPath><clipPath id="clippath-1"><path class="cls-3" d="m102.31,32.21c-1.25-3.38-2.97-6.22-5.14-8.54-2.17-2.31-4.7-4.07-7.57-5.28-2.87-1.2-5.87-1.81-9.02-1.81-10.28,0-17.68,3.99-22.21,11.95h-2.49c-.65-3.7-2.37-6.62-5.14-8.75-2.78-2.12-6.02-3.19-9.72-3.19-1.95,0-3.97.35-6.05,1.05-2.08.7-4.09,1.73-6.04,3.12l-11.44,8.25,9.03,12.48,10.33-7.4,1.38.97-15.95,73.88s.06.05.09.06c4.96,3.02,10.33,5.34,15.91,6.92l8.42-38.52h2.49c.37,1.48,1.07,2.93,2.08,4.36,1.02,1.45,2.32,2.71,3.89,3.83,1.57,1.11,3.47,2.01,5.69,2.71,2.22.69,4.81,1.04,7.78,1.04,6.29,0,11.67-1.35,16.16-4.03,4.49-2.68,8.17-6.17,11.04-10.48,2.87-4.3,4.98-9.19,6.32-14.64,1.33-5.46,2.01-10.92,2.01-16.39,0-4.35-.62-8.21-1.87-11.59Zm-17.7,25.47c-.84,3.06-2.11,5.7-3.82,7.92-1.72,2.22-3.87,3.95-6.46,5.2-2.59,1.25-5.6,1.87-9.02,1.87-4.35,0-7.78-1.31-10.28-3.95-2.51-2.63-3.75-6.12-3.75-10.48,0-3.62.49-6.95,1.46-10,.97-3.06,2.34-5.69,4.1-7.91,1.75-2.22,3.88-3.95,6.39-5.21,2.49-1.25,5.31-1.87,8.47-1.87,4.44,0,7.91,1.43,10.4,4.3,2.51,2.87,3.75,6.25,3.75,10.14,0,3.6-.41,6.93-1.25,9.99Z"/></clipPath></defs><g id="Guides"><g class="cls-6"><g class="cls-5"><rect class="cls-2" x="-43.12" y="-42.65" width="128.58" height="122.03"/><rect class="cls-4" x="-12.67" y="54.69" width="128.58" height="122.03"/><rect class="cls-1" x="64.98" y="-67.34" width="122.03" height="122.03"/></g></g></g></svg>