<?xml version="1.0" encoding="UTF-8"?><svg id="Capa_2" xmlns="http://www.w3.org/2000/svg" viewBox="0 0 469.58 187.2"><defs><style>.cls-1{fill:#fff;stroke-width:0px;}</style></defs><g id="Text_Titles"><path class="cls-1" d="m152.39,29.45c-2.35-6.37-5.59-11.73-9.68-16.1-4.09-4.35-8.86-7.66-14.27-9.94-5.41-2.26-11.07-3.41-16.99-3.41-19.37,0-33.33,7.52-41.86,22.52h-4.7c-1.22-6.98-4.47-12.48-9.68-16.5-5.24-4-11.35-6.02-18.31-6.02-3.67,0-7.47.66-11.4,1.97-3.92,1.32-7.71,3.27-11.37,5.88L0,18.33l17.02,23.53,12.03-8.88,2.61,1.83L1.6,174.03s.12.09.16.12c9.35,5.69,19.46,10.06,29.99,13.04l15.86-72.6h4.7c.71,2.8,2.02,5.52,3.92,8.23,1.93,2.73,4.37,5.1,7.33,7.22,2.96,2.09,6.53,3.78,10.72,5.1,4.18,1.29,9.07,1.95,14.67,1.95,11.84,0,22-2.54,30.46-7.59,8.46-5.05,15.39-11.63,20.8-19.74,5.41-8.11,9.38-17.32,11.92-27.59,2.51-10.29,3.78-20.59,3.78-30.88,0-8.2-1.18-15.46-3.53-21.83Zm-33.35,47.99c-1.57,5.76-3.97,10.74-7.19,14.92-3.24,4.18-7.29,7.45-12.17,9.8-4.89,2.35-10.55,3.53-16.99,3.53-8.2,0-14.67-2.47-19.37-7.45-4.72-4.96-7.07-11.54-7.07-19.74,0-6.82.92-13.09,2.75-18.85,1.83-5.76,4.42-10.72,7.73-14.9,3.29-4.18,7.31-7.45,12.03-9.82,4.7-2.35,10.01-3.53,15.96-3.53,8.37,0,14.9,2.7,19.6,8.11,4.72,5.41,7.07,11.77,7.07,19.11,0,6.79-.78,13.07-2.35,18.83Z"/><path class="cls-1" d="m282.8,104.18l-2.62-1.83,9.42-45.78c.87-4.36,1.31-8.2,1.31-11.51,0-6.63-1.22-12.73-3.66-18.31-2.44-5.58-5.89-10.33-10.33-14.26-4.45-3.92-9.72-6.97-15.83-9.16-6.11-2.18-12.82-3.27-20.14-3.27-13.6,0-24.9,2.92-33.88,8.76-8.98,5.85-15.83,12.69-20.54,20.54l23.54,17.79c2.96-4.71,6.58-8.5,10.86-11.38,4.27-2.88,9.55-4.32,15.83-4.32,6.97,0,12.25,1.66,15.83,4.97,3.57,3.32,5.36,7.5,5.36,12.56,0,1.22-.18,2.71-.52,4.45h-35.05c-10.29,0-18.93,1.35-25.9,4.05-6.98,2.71-12.6,6.19-16.87,10.46s-7.32,9.03-9.16,14.26c-1.83,5.23-2.75,10.29-2.75,15.17,0,6.45,1,12.12,3.01,17,2,4.88,4.71,9.03,8.11,12.43s7.46,5.98,12.16,7.72c4.71,1.74,9.85,2.62,15.43,2.62,5.23,0,9.77-.57,13.6-1.7,3.83-1.14,7.19-2.62,10.07-4.45,2.88-1.83,5.32-4.01,7.32-6.54,2-2.53,3.7-5.27,5.1-8.24h4.71c1.39,6.63,4.71,11.77,9.94,15.43,5.23,3.66,11.16,5.49,17.79,5.49,7.5,0,14.65-2.27,21.45-6.8l16.22-10.99-16.48-24.59-13.34,9.42Zm-42.38-5.36c-5.93,4.62-13.26,6.93-21.97,6.93-4.54,0-8.11-1-10.73-3.01-2.62-2-3.92-4.93-3.92-8.76s1.61-6.84,4.84-9.03c3.23-2.18,7.19-3.27,11.9-3.27h30.87c-1.4,6.8-5.06,12.52-10.99,17.14Z"/><path class="cls-1" d="m443.68,104.18l-2.88-1.57L462.26,3.73h-32.96l-14.65,69.06c-2.44,10.99-6.15,19.49-11.12,25.51s-12.08,9.03-21.32,9.03c-6.11,0-10.99-1.61-14.65-4.84-3.66-3.23-5.49-8.15-5.49-14.78,0-2.79.35-5.67,1.05-8.63L379.33,3.73h-32.96l-17.27,80.05c-1.05,5.06-1.57,9.77-1.57,14.13,0,12.39,3.57,22.02,10.73,28.91,7.15,6.89,16.39,10.33,27.73,10.33,8.2,0,15.57-1.79,22.11-5.36,6.54-3.57,11.73-9.81,15.57-18.7h4.71c.7,7.85,3.75,13.82,9.16,17.92,5.4,4.1,11.68,6.15,18.84,6.15,3.49,0,7.02-.52,10.6-1.57,3.57-1.05,7.02-2.79,10.33-5.23l12.3-8.89-16.48-24.07-9.42,6.8Z"/></g></svg>